<svg width="64" height="64" viewBox="0 0 64 64" fill="none" xmlns="http://www.w3.org/2000/svg">
<path fill-rule="evenodd" clip-rule="evenodd" d="M45.4157 6.58367C45.6019 6.76945 45.7497 6.99015 45.8505 7.23313C45.9513 7.47612 46.0032 7.7366 46.0032 7.99967C46.0032 8.26274 45.9513 8.52322 45.8505 8.7662C45.7497 9.00918 45.6019 9.22989 45.4157 9.41567L22.8277 31.9997L45.4157 54.5837C45.7912 54.9592 46.0022 55.4686 46.0022 55.9997C46.0022 56.5308 45.7912 57.0401 45.4157 57.4157C45.0401 57.7912 44.5308 58.0022 43.9997 58.0022C43.4686 58.0022 42.9592 57.7912 42.5837 57.4157L18.5837 33.4157C18.3974 33.2299 18.2496 33.0092 18.1488 32.7662C18.048 32.5232 17.9961 32.2627 17.9961 31.9997C17.9961 31.7366 18.048 31.4761 18.1488 31.2331C18.2496 30.9902 18.3974 30.7695 18.5837 30.5837L42.5837 6.58367C42.7695 6.39742 42.9902 6.24964 43.2331 6.14882C43.4761 6.04799 43.7366 5.99609 43.9997 5.99609C44.2627 5.99609 44.5232 6.04799 44.7662 6.14882C45.0092 6.24964 45.2299 6.39742 45.4157 6.58367Z" fill="#4472C4" fill-opacity="0.4"/>
<path d="M47.236 6.65823C47.0598 6.2336 46.8016 5.84785 46.4763 5.52301C46.1515 5.1977 45.7657 4.93957 45.3411 4.76336C44.9159 4.58692 44.46 4.49609 43.9997 4.49609C43.5393 4.49609 43.0834 4.58692 42.6582 4.76336C42.2331 4.93976 41.847 5.19827 41.5219 5.52409C41.5218 5.52418 41.5218 5.52426 41.5217 5.52435L17.5243 29.5217C17.5243 29.5217 17.5242 29.5218 17.5241 29.5219C17.1983 29.847 16.9398 30.2331 16.7634 30.6582C16.5869 31.0835 16.4961 31.5393 16.4961 31.9997C16.4961 32.46 16.5869 32.9159 16.7634 33.3411C16.9398 33.7662 17.1983 34.1524 17.5241 34.4774C17.5242 34.4775 17.5243 34.4776 17.5243 34.4777L41.523 58.4763C42.1799 59.1332 43.0707 59.5022 43.9997 59.5022C44.9286 59.5022 45.8195 59.1332 46.4763 58.4763C47.1332 57.8195 47.5022 56.9286 47.5022 55.9997C47.5022 55.0707 47.1332 54.1799 46.4763 53.523L46.4762 53.5229L24.9492 31.9997L46.475 10.4777C46.4751 10.4776 46.4752 10.4774 46.4753 10.4773C46.8011 10.1523 47.0596 9.76617 47.236 9.34111C47.4124 8.91589 47.5032 8.46004 47.5032 7.99967C47.5032 7.5393 47.4124 7.08345 47.236 6.65823Z" stroke="white" stroke-opacity="0.4" stroke-width="3"/>
</svg>
