<svg width="64" height="64" viewBox="0 0 64 64" fill="none" xmlns="http://www.w3.org/2000/svg">
<path fill-rule="evenodd" clip-rule="evenodd" d="M18.5843 6.58367C18.3981 6.76945 18.2503 6.99015 18.1495 7.23313C18.0487 7.47612 17.9968 7.7366 17.9968 7.99967C17.9968 8.26274 18.0487 8.52322 18.1495 8.7662C18.2503 9.00918 18.3981 9.22989 18.5843 9.41567L41.1723 31.9997L18.5843 54.5837C18.2088 54.9592 17.9978 55.4686 17.9978 55.9997C17.9978 56.5308 18.2088 57.0401 18.5843 57.4157C18.9599 57.7912 19.4692 58.0022 20.0003 58.0022C20.5314 58.0022 21.0408 57.7912 21.4163 57.4157L45.4163 33.4157C45.6026 33.2299 45.7504 33.0092 45.8512 32.7662C45.952 32.5232 46.0039 32.2627 46.0039 31.9997C46.0039 31.7366 45.952 31.4761 45.8512 31.2331C45.7504 30.9902 45.6026 30.7695 45.4163 30.5837L21.4163 6.58367C21.2305 6.39742 21.0098 6.24964 20.7669 6.14882C20.5239 6.04799 20.2634 5.99609 20.0003 5.99609C19.7373 5.99609 19.4768 6.04799 19.2338 6.14882C18.9908 6.24964 18.7701 6.39742 18.5843 6.58367Z" fill="#4472C4" fill-opacity="0.4"/>
<path d="M16.764 6.65823C16.9402 6.2336 17.1984 5.84785 17.5237 5.52301C17.8485 5.1977 18.2343 4.93957 18.6589 4.76336C19.0841 4.58692 19.54 4.49609 20.0003 4.49609C20.4607 4.49609 20.9166 4.58692 21.3418 4.76336C21.7669 4.93976 22.153 5.19827 22.4781 5.52409C22.4782 5.52418 22.4782 5.52426 22.4783 5.52435L46.4757 29.5217C46.4757 29.5217 46.4758 29.5218 46.4759 29.5219C46.8017 29.847 47.0602 30.2331 47.2366 30.6582C47.4131 31.0835 47.5039 31.5393 47.5039 31.9997C47.5039 32.46 47.4131 32.9159 47.2366 33.3411C47.0602 33.7662 46.8017 34.1524 46.4759 34.4774C46.4758 34.4775 46.4757 34.4776 46.4757 34.4777L22.477 58.4763C21.8201 59.1332 20.9293 59.5022 20.0003 59.5022C19.0714 59.5022 18.1805 59.1332 17.5237 58.4763C16.8668 57.8195 16.4978 56.9286 16.4978 55.9997C16.4978 55.0707 16.8668 54.1799 17.5237 53.523L17.5238 53.5229L39.0508 31.9997L17.525 10.4777C17.5249 10.4776 17.5248 10.4774 17.5247 10.4773C17.1989 10.1523 16.9404 9.76617 16.764 9.34111C16.5876 8.91589 16.4968 8.46004 16.4968 7.99967C16.4968 7.5393 16.5876 7.08345 16.764 6.65823Z" stroke="white" stroke-opacity="0.4" stroke-width="3"/>
</svg>
