<svg width="94" height="106" viewBox="0 0 94 106" fill="none" xmlns="http://www.w3.org/2000/svg">
<mask id="mask0_531_630" style="mask-type:alpha" maskUnits="userSpaceOnUse" x="0" y="0" width="94" height="106">
<path fill-rule="evenodd" clip-rule="evenodd" d="M17.7612 70.7164L3.55804 76.8034C1.39953 77.7285 0 79.8509 0 82.1993C0 84.5477 1.39953 86.6701 3.55804 87.5952L44.652 105.207C46.1288 105.84 47.8004 105.84 49.2771 105.207L90.3711 87.5952C92.5296 86.6701 93.9291 84.5477 93.9291 82.1993C93.9291 79.8509 92.5296 77.7285 90.3711 76.8034L76.168 70.7164L61.265 77.1034L73.1556 82.1993L46.9646 93.424L20.7736 82.1993L32.6641 77.1034L17.7612 70.7164Z" fill="#66696B"/>
<path fill-rule="evenodd" clip-rule="evenodd" d="M17.7612 41.3635L3.55804 47.4506C1.39953 48.3756 0 50.4981 0 52.8465C0 55.1949 1.39953 57.3173 3.55804 58.2424L44.652 75.8541C46.1288 76.487 47.8004 76.487 49.2771 75.8541L90.3711 58.2424C92.5296 57.3173 93.9291 55.1949 93.9291 52.8465C93.9291 50.4981 92.5296 48.3756 90.3711 47.4506L76.168 41.3635L61.265 47.7505L73.1556 52.8465L46.9646 64.0712L20.7736 52.8465L32.6641 47.7505L17.7612 41.3635Z" fill="#66696B"/>
<path fill-rule="evenodd" clip-rule="evenodd" d="M44.652 0.744196C46.1288 0.11131 47.8004 0.11131 49.2771 0.744196L90.3711 18.3559C92.5296 19.281 93.9291 21.4034 93.9291 23.7518C93.9291 26.1002 92.5296 28.2226 90.3711 29.1477L49.2771 46.7594C47.8004 47.3923 46.1288 47.3923 44.652 46.7594L3.55804 29.1477C1.39953 28.2226 0 26.1002 0 23.7518C0 21.4034 1.39953 19.281 3.55804 18.3559L44.652 0.744196ZM20.7736 23.7518L46.9646 34.9765L73.1556 23.7518L46.9646 12.5271L20.7736 23.7518Z" fill="#66696B"/>
</mask>
<g mask="url(#mask0_531_630)">
<rect x="-30.6829" y="21.3135" width="113.407" height="120.695" transform="rotate(-26.3372 -30.6829 21.3135)" fill="white"/>
</g>
</svg>
