<svg width="83" height="112" viewBox="0 0 83 112" fill="none" xmlns="http://www.w3.org/2000/svg">
<mask id="mask0_531_667" style="mask-type:alpha" maskUnits="userSpaceOnUse" x="0" y="0" width="83" height="112">
<path fill-rule="evenodd" clip-rule="evenodd" d="M26.3093 66.1848C29.1208 66.1848 31.3999 68.4639 31.3999 71.2754V97.3975L38.7573 92.4926C40.4672 91.3527 42.6948 91.3527 44.4047 92.4926L51.7621 97.3975V71.2754C51.7621 68.4639 54.0413 66.1848 56.8527 66.1848C59.6641 66.1848 61.9433 68.4639 61.9433 71.2754V106.909C61.9433 108.787 60.91 110.512 59.2547 111.398C57.5995 112.283 55.591 112.186 54.029 111.145L41.581 102.846L29.1331 111.145C27.571 112.186 25.5625 112.283 23.9073 111.398C22.2521 110.512 21.2188 108.787 21.2188 106.909V71.2754C21.2188 68.4639 23.4979 66.1848 26.3093 66.1848Z" fill="#66696B"/>
<path fill-rule="evenodd" clip-rule="evenodd" d="M30.2026 5.08552C36.2729 -1.69517 46.889 -1.69518 52.9593 5.08552L53.6434 5.84965C54.6746 7.00157 56.1734 7.62241 57.7171 7.53707L58.7412 7.48045C67.8282 6.97809 75.3349 14.4849 74.8326 23.5719L74.776 24.5959C74.6906 26.1396 75.3115 27.6384 76.4634 28.6697L77.2275 29.3537C84.0082 35.424 84.0082 46.0402 77.2275 52.1104L76.4634 52.7945C75.3115 53.8257 74.6906 55.3245 74.776 56.8683L74.8326 57.8923C75.3349 66.9793 67.8282 74.4861 58.7412 73.9837L57.7171 73.9271C56.1734 73.8417 54.6746 74.4626 53.6434 75.6145L52.9593 76.3786C46.889 83.1593 36.2729 83.1593 30.2026 76.3786L29.5185 75.6145C28.4873 74.4626 26.9885 73.8417 25.4448 73.9271L24.4207 73.9837C15.3337 74.4861 7.82697 66.9793 8.32933 57.8923L8.38594 56.8683C8.47129 55.3245 7.85045 53.8257 6.69853 52.7945L5.9344 52.1104C-0.846294 46.0402 -0.8463 35.424 5.9344 29.3537L6.69853 28.6697C7.85045 27.6384 8.47129 26.1396 8.38594 24.5959L8.32933 23.5719C7.82697 14.4849 15.3337 6.97809 24.4207 7.48045L25.4448 7.53707C26.9885 7.62241 28.4873 7.00157 29.5185 5.84965L30.2026 5.08552ZM45.3737 11.8763C43.3503 9.61607 39.8116 9.61607 37.7882 11.8763L37.1041 12.6404C34.0104 16.0962 29.5139 17.9587 24.8828 17.7027L23.8587 17.6461C20.8297 17.4786 18.3275 19.9809 18.4949 23.0099L18.5515 24.0339C18.8076 28.665 16.9451 33.1616 13.4893 36.2552L12.7252 36.9393C10.4649 38.9627 10.4649 42.5014 12.7252 44.5249L13.4893 45.2089C16.9451 48.3026 18.8076 52.7991 18.5515 57.4302L18.4949 58.4543C18.3275 61.4833 20.8297 63.9855 23.8587 63.8181L24.8828 63.7615C29.5139 63.5054 34.0104 65.368 37.1041 68.8237L37.7882 69.5878C39.8116 71.8481 43.3503 71.8481 45.3737 69.5878L46.0578 68.8237C49.1515 65.368 53.648 63.5054 58.2791 63.7615L59.3032 63.8181C62.3322 63.9855 64.8344 61.4833 64.667 58.4543L64.6103 57.4302C64.3543 52.7991 66.2168 48.3026 69.6726 45.2089L70.4367 44.5249C72.697 42.5014 72.697 38.9627 70.4367 36.9393L69.6726 36.2552C66.2168 33.1615 64.3543 28.665 64.6103 24.0339L64.667 23.0099C64.8344 19.9809 62.3322 17.4786 59.3032 17.6461L58.2791 17.7027C53.648 17.9587 49.1515 16.0962 46.0578 12.6404L45.3737 11.8763Z" fill="#66696B"/>
<path fill-rule="evenodd" clip-rule="evenodd" d="M55.3617 32.0418C57.3497 34.0298 57.3497 37.2529 55.3617 39.2409L40.09 54.5126C38.102 56.5006 34.8789 56.5006 32.8909 54.5126L27.8003 49.422C25.8123 47.4341 25.8123 44.2109 27.8003 42.2229C29.7883 40.2349 33.0115 40.2349 34.9995 42.2229L36.4905 43.7139L48.1626 32.0418C50.1506 30.0538 53.3737 30.0538 55.3617 32.0418Z" fill="#66696B"/>
</mask>
<g mask="url(#mask0_531_667)">
<rect x="-36.6829" y="26.3135" width="113.407" height="120.695" transform="rotate(-26.3372 -36.6829 26.3135)" fill="white"/>
</g>
</svg>
