<svg width="109" height="110" viewBox="0 0 109 110" fill="none" xmlns="http://www.w3.org/2000/svg">
<mask id="mask0_531_641" style="mask-type:alpha" maskUnits="userSpaceOnUse" x="0" y="0" width="109" height="110">
<path fill-rule="evenodd" clip-rule="evenodd" d="M53.8113 56.0887C53.8113 57.7918 55.1907 59.1724 56.8924 59.1724H85.6788C87.3805 59.1724 88.76 57.7918 88.76 56.0887C88.76 54.3856 87.3805 53.005 85.6788 53.005H56.8924C55.1907 53.005 53.8113 54.3856 53.8113 56.0887Z" fill="#66696B"/>
<path fill-rule="evenodd" clip-rule="evenodd" d="M53.0476 56.0886C53.0476 58.2128 54.7683 59.9359 56.8923 59.9359H85.6788C87.8027 59.9359 89.5235 58.2128 89.5235 56.0886C89.5235 53.9644 87.8027 52.2413 85.6788 52.2413H56.8923C54.7683 52.2413 53.0476 53.9644 53.0476 56.0886ZM56.8923 58.4087C55.613 58.4087 54.5748 57.3706 54.5748 56.0886C54.5748 54.8066 55.613 53.7685 56.8923 53.7685H85.6788C86.9581 53.7685 87.9963 54.8066 87.9963 56.0886C87.9963 57.3706 86.9581 58.4087 85.6788 58.4087H56.8923Z" fill="#66696B"/>
<path fill-rule="evenodd" clip-rule="evenodd" d="M57.1641 76.6174C58.9417 76.3789 60.1887 74.7499 59.9493 72.979C59.1403 66.9949 53.0787 56.3028 36.7466 55.0702C34.958 54.9352 33.3982 56.2702 33.2627 58.052C33.1272 59.8338 34.4673 61.3877 36.2559 61.5227C49.3213 62.5087 53.0835 70.675 53.5118 73.8427C53.7512 75.6136 55.3864 76.8559 57.1641 76.6174Z" fill="#66696B"/>
<path fill-rule="evenodd" clip-rule="evenodd" d="M52.7551 73.9451C53.0513 76.1362 55.0728 77.6685 57.2656 77.3743C59.4589 77.08 61.0023 75.0685 60.706 72.8768C59.8519 66.5592 53.5189 55.5703 36.804 54.3088C34.5978 54.1423 32.669 55.7894 32.5013 57.9942C32.3336 60.1994 33.9918 62.1177 36.1984 62.2842C48.8827 63.2415 52.3721 71.1126 52.7551 73.9451ZM57.0625 75.8607C55.6999 76.0435 54.4511 75.0912 54.2685 73.7405C53.7949 70.2375 49.7597 61.7762 36.3133 60.7614C34.9427 60.6579 33.9208 59.4684 34.0241 58.11C34.1274 56.7512 35.3182 55.7282 36.6891 55.8317C52.6384 57.0354 58.4287 67.4308 59.1926 73.0814C59.3751 74.4315 58.4245 75.6779 57.0625 75.8607Z" fill="#66696B"/>
<path fill-rule="evenodd" clip-rule="evenodd" d="M56.2561 102.601C58.8071 99.2229 59.8016 95.1731 59.9726 92.4204L59.9786 92.3233V15.1693L59.9433 14.9361C59.6144 12.7647 58.5745 9.61307 56.4428 6.90561C54.2416 4.10995 50.8071 1.73084 45.9369 1.61424C41.0347 1.49686 37.3513 3.82738 34.8623 6.52908C33.2787 8.24799 32.1084 10.1823 31.3097 11.929C29.0025 11.7567 26.2942 11.944 23.6288 12.7564C19.703 13.9528 15.7251 16.5661 13.488 21.4725C11.2965 26.2791 11.0282 31.5903 12.4036 36.2992C10.8188 37.173 8.93617 38.4138 7.17946 40.0936C4.13866 43.0011 1.38818 47.3239 1.38818 53.2766C1.38819 61.283 4.08309 67.4555 7.92527 70.5064C7.17711 73.5556 6.68454 78.7882 10.0337 84.8477C13.976 91.9804 21.0299 94.8135 26.3474 95.3144C26.9915 97.4732 28.1437 99.9285 29.979 102.141C32.7248 105.452 36.9678 108.164 43.0327 108.484C49.2765 108.814 53.5859 106.138 56.2561 102.601ZM15.1041 42.0036C13.9824 42.6504 12.7167 43.5176 11.5525 44.6307C9.41009 46.6792 7.70278 49.4573 7.70278 53.2766C7.70278 61.8055 11.1658 65.5146 12.8244 66.1623L15.6661 67.272L14.6487 70.1382C14.6296 70.1921 14.6082 70.2512 14.5849 70.3153C14.0343 71.8359 12.4573 76.1911 15.5654 81.8145C18.7559 87.5869 25.0991 89.3293 28.6896 89.0885L31.6715 88.8885L32.0356 91.843C32.2281 93.405 33.047 95.9651 34.8472 98.1356C36.5698 100.212 39.2203 101.985 43.3669 102.204C47.3348 102.413 49.6932 100.829 51.2095 98.8211C52.8185 96.6901 53.5322 93.9661 53.664 92.122V15.6619C53.4277 14.353 52.7438 12.3996 51.4739 10.7868C50.2028 9.17233 48.4202 7.96495 45.7851 7.90186C43.182 7.83953 41.1371 9.02061 39.5149 10.7814C37.8468 12.592 36.8118 14.8408 36.4034 16.2674L35.577 19.1543L32.6434 18.4661C30.9289 18.064 28.143 17.9578 25.4764 18.7705C22.8944 19.5575 20.5728 21.1446 19.2375 24.0731C17.3519 28.2087 17.494 32.858 19.2241 36.5524C20.8745 40.0765 23.9107 42.6468 28.008 43.2469C29.7332 43.4996 30.9261 45.0974 30.6724 46.8157C30.4187 48.534 28.8145 49.7221 27.0893 49.4694C21.8468 48.7015 17.7586 45.84 15.1041 42.0036Z" fill="#66696B"/>
<path fill-rule="evenodd" clip-rule="evenodd" d="M42.9924 109.247C49.5104 109.591 54.0554 106.783 56.8654 103.061C59.5277 99.5355 60.5567 95.3309 60.7346 92.4675L60.7436 92.3231L60.7421 15.1116L60.6982 14.8215C60.3533 12.5444 59.2705 9.2626 57.0426 6.43308C54.729 3.49459 51.095 0.973768 45.9551 0.85071C40.7753 0.726691 36.8942 3.19633 34.3006 6.01154C32.7965 7.64416 31.6556 9.45747 30.8401 11.1345C28.5721 11.0205 25.9736 11.2432 23.4061 12.0258C19.3192 13.2713 15.1401 16.0082 12.7932 21.1555C10.6138 25.9354 10.2706 31.1966 11.5086 35.9279C9.99929 36.8026 8.27576 37.9886 6.65167 39.5415C3.5026 42.5526 0.624508 47.0631 0.624512 53.2764C0.624516 61.1731 3.19799 67.46 7.07447 70.7935C6.36441 74.0236 6.06364 79.2433 9.36529 85.2169C13.3374 92.4036 20.3391 95.3742 25.768 96.0203C26.46 98.1393 27.6178 100.49 29.3912 102.629C32.2609 106.088 36.6963 108.914 42.9924 109.247ZM55.6467 102.141C53.1163 105.492 49.0424 108.037 43.0729 107.722C37.2391 107.414 33.1884 104.815 30.5667 101.654C28.8067 99.5318 27.6985 97.1721 27.079 95.0959L26.9318 94.6023L26.4189 94.554C21.2769 94.0696 14.4894 91.3308 10.7019 84.4781C7.47027 78.6312 7.95057 73.6072 8.66677 70.6882L8.78344 70.2127L8.40001 69.9082C4.80078 67.0503 2.15169 61.14 2.15168 53.2764C2.15168 47.5843 4.77456 43.4493 7.70708 40.6453C9.40424 39.0225 11.229 37.8186 12.7722 36.9677L13.308 36.6722L13.1365 36.0849C11.811 31.5469 12.0693 26.4244 14.1827 21.7891C16.3099 17.1237 20.0866 14.634 23.8513 13.4866C26.4136 12.7057 29.0256 12.524 31.2528 12.6903L31.7829 12.7299L32.004 12.2464C32.7758 10.5586 33.9044 8.69548 35.4238 7.0463C37.8082 4.45812 41.2938 2.26671 45.9185 2.37744C50.519 2.48758 53.754 4.72496 55.8428 7.3778C57.8784 9.9632 58.8754 12.9847 59.1882 15.0502L59.215 15.2266V92.2995L59.2104 92.3728C59.0462 95.0149 58.0863 98.91 55.6467 102.141ZM50.6 98.3608C49.2243 100.183 47.1019 101.636 43.4071 101.441C39.491 101.234 37.0331 99.5748 35.4349 97.6479C33.7399 95.6044 32.9704 93.1864 32.7933 91.7494L32.3409 88.0781L28.6384 88.3264C25.2605 88.553 19.2444 86.8922 16.2337 81.445C13.2932 76.1248 14.771 72.0438 15.2994 70.5846L15.3028 70.5752L15.3682 70.3935L16.6331 66.8297L13.1021 65.4508C12.5059 65.218 11.3429 64.3017 10.3198 62.3239C9.31078 60.3734 8.46628 57.4375 8.46628 53.2764C8.46627 49.7165 10.0471 47.1264 12.0801 45.1824C12.9914 44.3111 13.9725 43.594 14.8944 43.0194C17.6632 46.7223 21.7783 49.4631 26.9786 50.2248C29.1179 50.5381 31.112 49.0649 31.4277 46.9271C31.7434 44.7885 30.2587 42.8047 28.1186 42.4912C24.3037 41.9324 21.47 39.5477 19.9155 36.2284C18.2792 32.7343 18.1406 28.3191 19.9322 24.3897C21.1582 21.7009 23.2797 20.2381 25.699 19.5008C28.2241 18.7312 30.8722 18.8349 32.4689 19.2094L36.1108 20.0636L37.1374 16.4774C37.5189 15.1448 38.5022 13.0073 40.0764 11.2986C41.5922 9.65328 43.4391 8.60933 45.7668 8.66506C48.1341 8.72174 49.7166 9.78917 50.8738 11.259C52.0303 12.7278 52.6705 14.5196 52.9004 15.7317V92.0941C52.7713 93.8295 52.0916 96.3853 50.6 98.3608ZM43.3266 102.966C47.5675 103.19 50.162 101.475 51.8188 99.281C53.5376 97.0047 54.286 94.1286 54.4256 92.1763L54.4295 92.1219L54.4275 15.5933L54.4154 15.526C54.1616 14.1206 53.436 12.0444 52.0737 10.3142C50.6887 8.55514 48.7062 7.20784 45.8033 7.13833C42.9247 7.06941 40.6818 8.38762 38.9532 10.2639C37.1912 12.1765 36.1045 14.5365 35.6692 16.0571L35.043 18.2445L32.8177 17.7226C30.9855 17.2928 28.0618 17.1841 25.2537 18.0399C22.509 18.8765 19.9872 20.5881 18.5427 23.7561C16.5631 28.0979 16.7086 32.9814 18.5325 36.8761C20.2788 40.605 23.5174 43.3607 27.8973 44.0023C29.2076 44.1942 30.1085 45.406 29.9169 46.704C29.7251 48.0027 28.5108 48.9057 27.1999 48.7137C22.1836 47.979 18.276 45.2457 15.732 41.569L15.3318 40.9906L14.7226 41.342C13.5626 42.0109 12.2438 42.913 11.0247 44.0786C8.77294 46.2317 6.9391 49.1977 6.93911 53.2764C6.93911 57.6442 7.82613 60.8273 8.96333 63.0256C10.0863 65.1964 11.4842 66.4585 12.5466 66.8734L14.6988 67.7138L13.929 69.8826L13.8669 70.0552C13.2912 71.6451 11.6276 76.2684 14.8971 82.1837C18.2672 88.2811 24.9377 90.1053 28.7406 89.8502L31.0019 89.6985L31.2776 91.9362C31.4855 93.6233 32.354 96.3255 34.2594 98.6229C36.1064 100.85 38.9494 102.735 43.3266 102.966Z" fill="#66696B"/>
<path fill-rule="evenodd" clip-rule="evenodd" d="M79.461 87.7719C81.0952 87.1805 81.9586 85.3246 81.3895 83.6265C79.0704 76.707 74.2686 72.9163 69.3759 71.0573C64.5879 69.2381 59.6333 69.218 56.4367 69.7641C54.7292 70.0558 53.5725 71.7306 53.8533 73.5049C54.134 75.2791 55.7459 76.481 57.4534 76.1893C59.7923 75.7897 63.6289 75.8068 67.2238 77.1727C70.7142 78.4989 73.8874 81.0414 75.4715 85.768C76.0406 87.466 77.8267 88.3632 79.461 87.7719Z" fill="#66696B"/>
<path fill-rule="evenodd" clip-rule="evenodd" d="M74.7478 86.0104C75.446 88.0937 77.6627 89.2345 79.7211 88.4897C81.7647 87.7502 82.808 85.455 82.1138 83.3837C79.7104 76.2125 74.7174 72.2697 69.6475 70.3433C64.7096 68.4672 59.6136 68.4465 56.3084 69.0112C54.1637 69.3776 52.7573 71.4624 53.0994 73.624C53.4424 75.7919 55.4295 77.3095 57.5823 76.9417C59.8125 76.5607 63.5076 76.5772 66.9529 77.8863C70.2647 79.1446 73.2476 81.5342 74.7478 86.0104ZM79.2015 87.0536C77.9914 87.4915 76.6358 86.838 76.1958 85.5251C74.5278 80.5481 71.1643 77.8528 67.4954 76.4587C63.7508 75.0359 59.7729 75.0182 57.3251 75.4364C56.0629 75.652 54.8263 74.766 54.6078 73.3853C54.3883 71.9984 55.2952 70.7336 56.5656 70.5166C59.6535 69.989 64.4667 70.0086 69.1051 71.7709C73.8205 73.5625 78.431 77.201 80.6658 83.869C81.1098 85.1938 80.4263 86.6104 79.2015 87.0536Z" fill="#66696B"/>
<path fill-rule="evenodd" clip-rule="evenodd" d="M79.461 23.3778C81.0952 23.9692 81.9586 25.8251 81.3895 27.5232C79.0704 34.4428 74.2686 38.2334 69.3759 40.0924C64.5879 41.9117 59.6333 41.9317 56.4367 41.3856C54.7292 41.0939 53.5725 39.4191 53.8533 37.6448C54.134 35.8706 55.7459 34.6687 57.4534 34.9605C59.7923 35.3601 63.6289 35.3429 67.2238 33.977C70.7142 32.6508 73.8874 30.1083 75.4715 25.3818C76.0406 23.6837 77.8267 22.7865 79.461 23.3778Z" fill="#66696B"/>
<path fill-rule="evenodd" clip-rule="evenodd" d="M74.7478 25.1389C75.446 23.0557 77.6627 21.9148 79.7211 22.6597C81.7647 23.3991 82.808 25.6944 82.1138 27.7657C79.7104 34.9368 74.7174 38.8797 69.6475 40.806C64.7096 42.6822 59.6136 42.7028 56.3084 42.1381C54.1637 41.7717 52.7573 39.6869 53.0994 37.5253C53.4424 35.3574 55.4295 33.8398 57.5823 34.2076C59.8125 34.5886 63.5076 34.5721 66.9529 33.263C70.2647 32.0047 73.2476 29.6151 74.7478 25.1389ZM79.2015 24.0957C77.9914 23.6579 76.6358 24.3114 76.1958 25.6242C74.5278 30.6012 71.1643 33.2966 67.4954 34.6906C63.7508 36.1134 59.7729 36.1312 57.3251 35.713C56.0629 35.4973 54.8263 36.3834 54.6078 37.764C54.3883 39.1509 55.2952 40.4157 56.5656 40.6328C59.6535 41.1603 64.4667 41.1408 69.1051 39.3785C73.8205 37.5868 78.431 33.9484 80.6658 27.2804C81.1098 25.9555 80.4263 24.5389 79.2015 24.0957Z" fill="#66696B"/>
<path fill-rule="evenodd" clip-rule="evenodd" d="M84.6486 86.1321C88.0668 86.1321 90.8379 89.0186 90.8379 92.5793C90.8379 96.14 88.0668 99.0266 84.6486 99.0266C81.2303 99.0266 78.4592 96.14 78.4592 92.5793C78.4592 89.0186 81.2303 86.1321 84.6486 86.1321ZM84.6486 79.7305C91.4609 79.7305 96.9834 85.4831 96.9834 92.5793C96.9834 99.6755 91.4609 105.428 84.6486 105.428C77.8362 105.428 72.3137 99.6755 72.3137 92.5793C72.3137 85.4831 77.8362 79.7305 84.6486 79.7305Z" fill="#66696B"/>
<path fill-rule="evenodd" clip-rule="evenodd" d="M92.3651 92.5793C92.3651 88.2345 88.9684 84.6049 84.6486 84.6049C80.3287 84.6049 76.932 88.2345 76.932 92.5793C76.932 96.9241 80.3287 100.554 84.6486 100.554C88.9684 100.554 92.3651 96.9241 92.3651 92.5793ZM84.6486 81.2577C90.5593 81.2577 95.4562 86.2672 95.4562 92.5793C95.4562 98.8914 90.5593 103.901 84.6486 103.901C78.7378 103.901 73.8409 98.8914 73.8409 92.5793C73.8409 86.2672 78.7378 81.2577 84.6486 81.2577ZM90.8379 92.5793C90.8379 89.0186 88.0668 86.1321 84.6486 86.1321C81.2303 86.1321 78.4592 89.0186 78.4592 92.5793C78.4592 96.14 81.2303 99.0266 84.6486 99.0266C88.0668 99.0266 90.8379 96.14 90.8379 92.5793ZM96.9834 92.5793C96.9834 85.4831 91.4609 79.7305 84.6486 79.7305C77.8362 79.7305 72.3137 85.4831 72.3137 92.5793C72.3137 99.6755 77.8362 105.428 84.6486 105.428C91.4609 105.428 96.9834 99.6755 96.9834 92.5793Z" fill="#66696B"/>
<path fill-rule="evenodd" clip-rule="evenodd" d="M84.6486 10.8391C88.0668 10.8391 90.8379 13.6102 90.8379 17.0285C90.8379 20.4467 88.0668 23.2178 84.6486 23.2178C81.2303 23.2178 78.4592 20.4467 78.4592 17.0285C78.4592 13.6102 81.2303 10.8391 84.6486 10.8391ZM84.6486 4.69362C91.4609 4.69362 96.9834 10.2161 96.9834 17.0285C96.9834 23.8408 91.4609 29.3633 84.6486 29.3633C77.8362 29.3633 72.3137 23.8408 72.3137 17.0285C72.3137 10.2161 77.8362 4.69362 84.6486 4.69362Z" fill="#66696B"/>
<path fill-rule="evenodd" clip-rule="evenodd" d="M92.3651 17.0285C92.3651 12.7667 88.9103 9.31192 84.6486 9.31192C80.3868 9.31192 76.932 12.7667 76.932 17.0285C76.932 21.2902 80.3868 24.745 84.6486 24.745C88.9103 24.745 92.3651 21.2902 92.3651 17.0285ZM84.6486 6.22079C90.6175 6.22079 95.4562 11.0595 95.4562 17.0285C95.4562 22.9974 90.6175 27.8361 84.6486 27.8361C78.6796 27.8361 73.8409 22.9974 73.8409 17.0285C73.8409 11.0595 78.6796 6.22079 84.6486 6.22079ZM90.8379 17.0285C90.8379 13.6102 88.0668 10.8391 84.6486 10.8391C81.2303 10.8391 78.4592 13.6102 78.4592 17.0285C78.4592 20.4467 81.2303 23.2178 84.6486 23.2178C88.0668 23.2178 90.8379 20.4467 90.8379 17.0285ZM96.9834 17.0285C96.9834 10.2161 91.4609 4.69362 84.6486 4.69362C77.8362 4.69362 72.3137 10.2161 72.3137 17.0285C72.3137 23.8408 77.8362 29.3633 84.6486 29.3633C91.4609 29.3633 96.9834 23.8408 96.9834 17.0285Z" fill="#66696B"/>
<path fill-rule="evenodd" clip-rule="evenodd" d="M95.9557 48.8713C99.374 48.8713 102.145 51.6424 102.145 55.0607C102.145 58.479 99.374 61.25 95.9557 61.25C92.5374 61.25 89.7663 58.479 89.7663 55.0607C89.7663 51.6424 92.5374 48.8713 95.9557 48.8713ZM95.9557 42.7258C102.768 42.7258 108.291 48.2483 108.291 55.0607C108.291 61.873 102.768 67.3955 95.9557 67.3955C89.1433 67.3955 83.6208 61.873 83.6208 55.0607C83.6208 48.2483 89.1433 42.7258 95.9557 42.7258Z" fill="#66696B"/>
<path fill-rule="evenodd" clip-rule="evenodd" d="M103.672 55.0607C103.672 50.799 100.217 47.3441 95.9557 47.3441C91.694 47.3441 88.2391 50.799 88.2391 55.0607C88.2391 59.3224 91.694 62.7772 95.9557 62.7772C100.217 62.7772 103.672 59.3224 103.672 55.0607ZM95.9557 44.253C101.925 44.253 106.763 49.0918 106.763 55.0607C106.763 61.0296 101.925 65.8683 95.9557 65.8683C89.9868 65.8683 85.148 61.0296 85.148 55.0607C85.148 49.0918 89.9868 44.253 95.9557 44.253ZM102.145 55.0607C102.145 51.6424 99.374 48.8713 95.9557 48.8713C92.5374 48.8713 89.7663 51.6424 89.7663 55.0607C89.7663 58.479 92.5374 61.25 95.9557 61.25C99.374 61.25 102.145 58.479 102.145 55.0607ZM108.291 55.0607C108.291 48.2483 102.768 42.7258 95.9557 42.7258C89.1433 42.7258 83.6208 48.2483 83.6208 55.0607C83.6208 61.873 89.1433 67.3955 95.9557 67.3955C102.768 67.3955 108.291 61.873 108.291 55.0607Z" fill="#66696B"/>
<path fill-rule="evenodd" clip-rule="evenodd" d="M37.0688 72.6607C30.3439 73.053 26.9653 68.1124 26.1277 65.4391C25.6284 63.8458 23.857 62.9366 22.1711 63.4085C20.4852 63.8803 19.5232 65.5545 20.0225 67.1478C21.277 71.1513 26.5032 79.3062 37.4611 78.6669C39.216 78.5645 40.5509 77.137 40.4425 75.4784C40.3342 73.8198 38.8237 72.5583 37.0688 72.6607Z" fill="#66696B"/>
<path fill-rule="evenodd" clip-rule="evenodd" d="M19.2938 67.3764C20.6074 71.5687 26.066 80.0968 37.5055 79.4294C39.6423 79.3048 41.343 77.5504 41.2044 75.4289C41.0662 73.3123 39.1578 71.7742 37.0243 71.8986C30.7692 72.2636 27.6301 67.6805 26.8563 65.211C26.224 63.1933 24.0167 62.0992 21.9653 62.6734C19.8992 63.2517 18.6552 65.3382 19.2938 67.3764ZM37.4166 77.9049C26.9404 78.516 21.9464 70.7344 20.7511 66.9197C20.3912 65.7713 21.0712 64.5095 22.3769 64.1441C23.6972 63.7745 25.0327 64.4987 25.399 65.6677C26.3005 68.5447 29.9186 73.843 37.1132 73.4232C38.4896 73.3429 39.6021 74.3279 39.6805 75.5284C39.7586 76.724 38.7897 77.8247 37.4166 77.9049Z" fill="#66696B"/>
<path fill-rule="evenodd" clip-rule="evenodd" d="M39.3498 31.7389C39.9694 30.0992 39.9809 28.3666 39.8182 27.3863C39.5333 25.6695 40.694 24.0469 42.4107 23.7619C44.1275 23.477 45.7502 24.6377 46.0351 26.3545C46.3503 28.2537 46.316 31.1319 45.2449 33.9665C44.1354 36.9026 41.8833 39.8294 37.8588 41.3682C36.2333 41.9897 34.4118 41.1758 33.7903 39.5503C33.1688 37.9249 33.9827 36.1033 35.6081 35.4818C37.6851 34.6877 38.7686 33.2769 39.3498 31.7389Z" fill="#66696B"/>
<path fill-rule="evenodd" clip-rule="evenodd" d="M45.9588 34.2363C44.7856 37.3413 42.3922 40.4521 38.1312 42.0813C36.1118 42.8534 33.8488 41.8423 33.0767 39.823C32.3046 37.8036 33.3157 35.5406 35.3351 34.7685C37.1771 34.0642 38.1185 32.8363 38.6352 31.4689C39.2001 29.9739 39.2088 28.38 39.0646 27.5112C38.7106 25.3785 40.1526 23.3626 42.2854 23.0086C44.4182 22.6546 46.4341 24.0966 46.788 26.2294C47.1217 28.2399 47.0847 31.2569 45.9588 34.2363ZM37.5857 40.6549C41.3738 39.2065 43.4845 36.4639 44.5303 33.6965C45.5466 31.0068 45.5782 28.2674 45.2815 26.4794C45.0656 25.1787 43.8361 24.2993 42.5354 24.5151C41.2347 24.731 40.3553 25.9605 40.5711 27.2612C40.7523 28.353 40.738 30.2244 40.0637 32.0087C39.4181 33.7174 38.1924 35.311 35.8805 36.195C34.6489 36.6659 34.0323 38.046 34.5032 39.2775C34.9741 40.5091 36.3542 41.1258 37.5857 40.6549Z" fill="#66696B"/>
</mask>
<g mask="url(#mask0_531_641)">
<rect x="-27.6829" y="25.7539" width="121.162" height="128.948" transform="rotate(-26.3372 -27.6829 25.7539)" fill="white"/>
</g>
</svg>
