<svg width="111" height="108" viewBox="0 0 111 108" fill="none" xmlns="http://www.w3.org/2000/svg">
<mask id="mask0_531_636" style="mask-type:alpha" maskUnits="userSpaceOnUse" x="0" y="0" width="111" height="108">
<path fill-rule="evenodd" clip-rule="evenodd" d="M49.6015 11.4086C53.9813 4.80987 61.3548 0.846313 69.2507 0.846313H70.5141C77.8105 0.846313 83.3607 7.42689 82.1611 14.6558L78.5488 36.4255H92.5995C103.776 36.4255 112.159 46.6959 109.967 57.704L102.883 93.2832C101.227 101.598 93.9577 107.584 85.5149 107.584H18.4447C8.6629 107.584 0.733154 99.6193 0.733154 89.7944V42.3554C0.733154 39.0804 3.3764 36.4255 6.63701 36.4255H29.837C31.811 36.4255 33.6544 35.4346 34.7493 33.785L49.6015 11.4086ZM69.2507 12.7061C65.3028 12.7061 61.616 14.6878 59.4261 17.9872L44.5739 40.3636C41.2891 45.3126 35.7589 48.2853 29.837 48.2853H12.5409V89.7944C12.5409 93.0693 15.1841 95.7242 18.4447 95.7242H85.5149C88.3292 95.7242 90.7522 93.7291 91.3041 90.9573L98.3888 55.3781C99.1194 51.7087 96.3251 48.2853 92.5995 48.2853H71.5795C69.844 48.2853 68.1965 47.5183 67.0747 46.1883C65.953 44.8583 65.4706 43.0999 65.7559 41.3805L70.5141 12.7061H69.2507Z" fill="#66696B"/>
<path fill-rule="evenodd" clip-rule="evenodd" d="M24.927 101.891V42.1182H36.3124V101.891H24.927Z" fill="#66696B"/>
</mask>
<g mask="url(#mask0_531_636)">
<rect x="-30.6829" y="29.3135" width="119.157" height="126.813" transform="rotate(-26.3372 -30.6829 29.3135)" fill="white"/>
</g>
</svg>
