<svg xmlns="http://www.w3.org/2000/svg" xml:space="preserve" width="1098.4154" height="400" viewBox="0 0 1098.4154 399.99999"><g style="fill:#373c3f;fill-opacity:1"><path d="M432.698 516.769h-35.43v-67.321h70.835l35.41 35.421h-70.815z" style="fill:#373c3f;fill-opacity:1;fill-rule:nonzero;stroke:none" transform="matrix(2.75948 0 0 -2.75948 -291.015 1533.422)"/><path d="m432.698 555.693-35.43-35.412h70.835v-31.913h35.41v67.325zM158.208 516.76v-23.34h-11.813v23.34h-4.884V465.56h-31.156v44.248h22.36v4.5h-27.238v-53.252h32.242l3.792 3.778v-11.202h4.884v35.284h11.813v-35.284h4.884v63.126zM191.007 453.925v19.896h-4.882v-24.39h46.123v4.494zm7.853 57.34 12.865-30.916h5.097l-.474 1.148-14.145 34.275H188.3l-14.616-35.423h5.096l12.864 30.917zm32.236 5.494h-4.875v-50.111h4.875zM239.902 481.875h66.725v4.499h-66.725zm9.242 9.265h5.437l13.189 20.052h10.825l13.673-20.052h5.534l-13.674 20.052h14.61v4.502h-50.636v-4.502h14.23zm39.959-34.967c-1.113-1.395-2.514-2.506-4.263-3.319-1.762-.884-3.696-1.504-5.854-1.849-2.171-.347-4.243-.525-6.175-.525-2.1 0-4.224.178-6.364.525-2.134.345-4.025.962-5.725 1.833-1.692.862-3.045 2.01-4.107 3.432-1.03 1.373-1.573 3.087-1.576 5.236.005 2.052.549 3.707 1.606 5.079 1.093 1.44 2.46 2.575 4.159 3.447 1.746.876 3.675 1.508 5.815 1.918 2.138.396 4.208.592 6.192.592 1.922 0 3.99-.196 6.156-.592 2.166-.41 4.109-1.042 5.859-1.922 1.741-.92 3.153-2.085 4.274-3.526 1.063-1.366 1.607-3.047 1.609-5.146-.002-2.148-.55-3.834-1.606-5.183m.001 16.602c-2.085 1.279-4.511 2.273-7.242 2.975-2.766.707-5.769 1.057-9.051 1.057-3.281 0-6.284-.35-9.05-1.057-2.733-.706-5.138-1.696-7.155-2.971-2.054-1.349-3.648-2.962-4.782-4.868-1.152-1.92-1.744-4.104-1.743-6.479-.001-2.423.591-4.619 1.743-6.546 1.134-1.904 2.728-3.531 4.772-4.858 2.034-1.298 4.441-2.255 7.177-2.907 2.767-.656 5.76-.989 9.038-.989 3.279 0 6.275.333 9.036.989 2.735.652 5.167 1.606 7.235 2.89 2.056 1.344 3.666 2.965 4.825 4.867 1.179 1.927 1.766 4.124 1.764 6.554.002 2.381-.589 4.565-1.764 6.485-1.159 1.903-2.769 3.518-4.803 4.858M330.028 453.925v16.913h-4.882V449.43h46.576v4.494zm-.213 19.38h4.881v13.089h31.113v-6.518h-19.244v-4.426h19.244v-9.874h4.924v51.183h-4.924v-25.865h-17.767l4.192 4.219v20.582h-33.888v-4.58h29.003l.004-20.221h-36.29v-4.5h18.752zM120.74 427.42v-8.068c-.004-1.893-.494-3.38-1.46-4.526-.934-1.107-2.483-1.696-4.766-1.698h-6.835v20.758l6.835-.002c2.2 0 3.753-.507 4.727-1.444.962-.91 1.5-2.563 1.5-5.02m.012 6.562c-1.494 1.316-3.532 1.954-6.034 1.954h-9.259v-24.893h9.277c2.574 0 4.642.758 6.092 2.3 1.45 1.53 2.167 3.561 2.163 6.01v8.102c0 2.974-.712 5.181-2.239 6.527M138.379 419.923v-6.92a88.151 88.151 0 0 0-2.375-.111 92.557 92.557 0 0 0-2.151-.104 57.983 57.983 0 0 0-1.427-.033c-.922.002-1.714.307-2.452.948-.682.6-1.024 1.413-1.032 2.566 0 .03 0 .062.004.094.005 1.089.364 1.898 1.11 2.56.732.644 1.853 1 3.42 1zm.858 7.812c-.923.903-2.13 1.358-3.523 1.354h-2.608c-.44 0-.88-.01-1.325-.033-.445-.022-.857-.046-1.242-.068a15.37 15.37 0 0 0-1.247-.1l-.398-.022v-1.83h6.58c.94 0 1.619-.26 2.133-.76.488-.472.772-1.285.772-2.512v-1.822h-5.241c-2.03 0-3.648-.528-4.76-1.63-1.093-1.077-1.652-2.426-1.652-3.972 0-1.605.54-2.981 1.617-4.026 1.057-1.04 2.389-1.576 3.898-1.576h.018a90.358 90.358 0 0 1 3.783.135c.745.048 1.693.105 2.846.174l1.747-.004v12.852c0 1.61-.45 2.925-1.398 3.84M148.393 432.995v2.94h-2.318v-4.996zm-2.283-21.952h2.283v17.823h-2.283zM165.362 419.702c-.974.83-2.301 1.33-3.957 1.54l-1.771.168c-1.585.173-2.687.487-3.246.855-.512.343-.802.944-.81 1.992.014 1.098.355 1.714 1.05 2.092.767.402 1.8.631 3.11.653h6.155v1.855l-.403.01c-.921.022-1.691.055-2.315.1-.625.023-1.253.043-1.91.068-.654.023-1.166.033-1.533.033-.864 0-1.674-.087-2.43-.263-.765-.178-1.441-.458-2.03-.848a4.74 4.74 0 0 1-1.417-1.55c-.356-.636-.525-1.389-.525-2.25-.01-1.557.534-2.788 1.645-3.487 1.048-.665 2.438-1.068 4.169-1.25l1.66-.17c1.323-.15 2.267-.506 2.849-1.013.58-.5.868-1.166.872-2.105-.013-1.278-.421-2.002-1.247-2.44-.9-.459-2.092-.708-3.582-.708h-5.792v-1.945l.396-.018a179.76 179.76 0 0 1 2.305-.098 102.896 102.896 0 0 1 3.159-.069c.947 0 1.847.086 2.69.258.855.182 1.609.482 2.247.924a4.82 4.82 0 0 1 1.565 1.684c.39.697.577 1.543.577 2.514.006 1.43-.492 2.63-1.481 3.468M185.05 425.7a5.996 5.996 0 0 1-1.365 1.853 6.134 6.134 0 0 1-1.912 1.134 6.136 6.136 0 0 1-2.162.402c-.514 0-1.124-.114-1.858-.323a29.842 29.842 0 0 1-2.114-.687 69.159 69.159 0 0 1-1.88-.727v8.586h-2.185v-24.89h2.184v14.224c.876.337 1.624.612 2.235.84a53.78 53.78 0 0 0 2.054.635c.694.2 1.227.29 1.564.288.958-.002 1.802-.338 2.6-1.06.768-.703 1.148-1.605 1.153-2.828v-12.1h2.22v12.137c0 .93-.176 1.772-.534 2.515M193.32 432.997v2.941H191v-4.999zm-2.289-21.95h2.288v17.82h-2.288zM212.976 425.7a5.99 5.99 0 0 1-1.363 1.853 6.094 6.094 0 0 1-1.913 1.134 6.123 6.123 0 0 1-2.161.402c-.515 0-1.126-.114-1.863-.325a29.84 29.84 0 0 1-2.11-.685 81.55 81.55 0 0 1-1.882-.723v1.51H199.5v-17.823h2.183v14.23c.878.336 1.625.611 2.239.841a59.22 59.22 0 0 0 2.053.633c.69.2 1.224.292 1.563.29.957-.004 1.8-.34 2.6-1.062.767-.703 1.147-1.605 1.152-2.828v-12.104h2.217v12.141c0 .93-.175 1.772-.532 2.515M241.042 421.32a4.955 4.955 0 0 1-1.628 1.82c-.675.456-1.48.81-2.405 1.066-.91.255-1.9.47-2.971.654a30.168 30.168 0 0 0-2.784.533c-.778.195-1.423.46-1.94.79a2.984 2.984 0 0 0-1.121 1.277c-.244.53-.386 1.337-.386 2.287v.111c.009 1.556.46 2.631 1.315 3.232.911.64 2.307.991 4.2.987h7.09v1.86l-.395.014c-.929.046-1.733.08-2.412.1-.676.023-1.403.052-2.18.085a46.78 46.78 0 0 1-2.135.052c-2.316 0-4.186-.46-5.59-1.424-1.45-.99-2.153-2.779-2.147-5.017.004-1.296.186-2.428.585-3.264a4.832 4.832 0 0 1 1.702-1.968c.725-.482 1.584-.844 2.57-1.089.962-.24 2.026-.448 3.187-.632a33.057 33.057 0 0 0 2.632-.562c.737-.199 1.343-.453 1.813-.76a3.032 3.032 0 0 0 1.022-1.18c.224-.46.348-1.168.348-1.982.002-2.059-.486-3.464-1.327-4.17-.877-.746-2.222-1.152-4.083-1.152h-7.835v-1.923l.397-.018c1.063-.044 1.977-.076 2.75-.097a45.844 45.844 0 0 1 2.446-.086c.86-.016 1.615-.018 2.275-.018 2.383 0 4.27.534 5.606 1.668 1.365 1.167 1.991 3.211 1.991 5.9 0 1.122-.187 2.136-.59 2.905M247.764 421.285v1.083c.005 1.48.44 2.569 1.309 3.392.876.82 2.037 1.252 3.566 1.276 1.607 0 2.792-.37 3.607-1.055.787-.66 1.222-1.78 1.222-3.477v-1.22zm11.958 1.254c.006 2.107-.623 3.78-1.921 4.905-1.278 1.11-3.025 1.645-5.167 1.645a8.384 8.384 0 0 1-2.672-.432 6.751 6.751 0 0 1-2.273-1.262 5.911 5.911 0 0 1-1.598-2.09c-.39-.842-.584-1.803-.584-2.868v-2.922c0-2.67.51-4.787 1.585-6.318 1.098-1.571 2.97-2.332 5.448-2.332h.028c.386 0 .915.006 1.597.014.68.016 1.347.029 2.007.056.658.023 1.47.055 2.444.1l.397.019v1.895h-6.414c-1.887.01-3.066.572-3.75 1.652-.66 1.058-1.036 2.59-1.08 4.598h11.953zM274.195 428.964a43.1 43.1 0 0 1 2.283-.098l.404-.012v-1.903h-5.293c-1.837 0-3.236-.411-4.237-1.186-.968-.751-1.473-1.965-1.48-3.787v-4.055c.007-1.968.542-3.195 1.528-3.861 1.055-.707 2.441-1.08 4.19-1.08h5.395v-1.928l-.394-.02c-.907-.043-1.653-.076-2.242-.101-.614-.026-1.202-.038-1.767-.05a68.999 68.999 0 0 0-1.196-.02c-2.253 0-4.129.535-5.57 1.626-1.492 1.13-2.198 3.013-2.198 5.502v3.987c-.005 2.31.71 4.138 2.17 5.334 1.43 1.18 3.314 1.758 5.598 1.758 0 0 2.213-.068 2.81-.106M292.691 428.866v-14.312a42.532 42.532 0 0 0-2.255-.836 26.168 26.168 0 0 0-2.048-.656c-.677-.188-1.207-.274-1.55-.274a3.988 3.988 0 0 0-2.616.94c-.713.588-1.098 1.527-1.1 2.949v12.189h-2.22v-12.221c0-1.016.158-1.904.495-2.658a5.104 5.104 0 0 1 1.342-1.86 5.206 5.206 0 0 1 1.931-1.065 7.45 7.45 0 0 1 2.168-.323c.49 0 1.086.108 1.82.304.722.197 1.43.418 2.117.67.548.2 1.185.45 1.916.753v-1.42h2.218v17.82zM307.266 428.866a10.81 10.81 0 0 1-3.1-.44 7.365 7.365 0 0 1-2.142-1.055v1.495h-2.321v-17.823h2.32v14.064c.9.575 1.73.982 2.492 1.219.809.254 1.737.387 2.788.387h2.58v2.153zM315.465 432.995v2.943h-2.32v-5zm-2.291-21.948h2.29v17.819h-2.29zM330.169 426.747v2.119h-5.764l.002 5.033-2.286-2.128v-2.905h-2.777v-2.12h2.777v-9.762c0-1.86.38-3.332 1.207-4.377.856-1.07 2.278-1.56 4.139-1.56h2.702v2.078h-2.652c-1.365.007-2.122.369-2.474.953-.408.668-.638 1.694-.636 3.074v9.595zM333.896 411.043h2.287v17.823h-2.287zm2.288 21.952v2.943h-2.323v-4.999zM342.894 421.285v1.083c.004 1.48.44 2.569 1.31 3.392.875.82 2.037 1.252 3.565 1.276 1.604 0 2.79-.37 3.607-1.055.788-.66 1.22-1.78 1.223-3.477v-1.22zm11.957 1.254c.009 2.107-.627 3.785-1.92 4.905-1.278 1.109-3.023 1.645-5.167 1.645a8.459 8.459 0 0 1-2.673-.43 6.768 6.768 0 0 1-2.27-1.261 5.887 5.887 0 0 1-1.6-2.093c-.39-.842-.58-1.803-.58-2.868v-2.922c0-2.67.506-4.787 1.582-6.318 1.096-1.571 2.968-2.332 5.44-2.332h.035c.385 0 .92.006 1.598.014.678.016 1.347.029 2.004.056.657.023 1.472.057 2.444.1l.398.019v1.898h-6.411c-1.891.004-3.067.569-3.746 1.649-.666 1.058-1.042 2.59-1.087 4.598h11.953zM370.202 419.707c-.974.83-2.3 1.329-3.956 1.539l-1.772.169c-1.584.172-2.686.486-3.245.854-.513.343-.802.944-.81 1.992.013 1.096.354 1.712 1.05 2.088.767.402 1.8.633 3.11.655h6.154v1.853l-.402.009c-.92.023-1.692.058-2.315.101-.625.023-1.253.043-1.91.069-.656.022-1.166.032-1.534.032-.862 0-1.674-.087-2.43-.261-.764-.18-1.44-.458-2.029-.85a4.688 4.688 0 0 1-1.417-1.55c-.357-.634-.526-1.387-.526-2.248-.009-1.555.535-2.786 1.645-3.483 1.048-.665 2.44-1.07 4.17-1.254l1.66-.167c1.322-.149 2.267-.506 2.848-1.012.58-.501.868-1.164.871-2.103-.012-1.276-.42-2-1.246-2.437-.898-.462-2.092-.707-3.58-.707h-5.795v-1.947l.397-.016c.924-.044 1.692-.077 2.305-.1.611-.022 1.216-.04 1.816-.05a73.253 73.253 0 0 1 1.343-.018c.948 0 1.847.087 2.692.257.853.181 1.607.481 2.247.922a4.849 4.849 0 0 1 1.563 1.684c.391.699.576 1.542.576 2.513.007 1.428-.492 2.628-1.48 3.466" style="fill:#373c3f;fill-opacity:1;fill-rule:nonzero;stroke:none" transform="matrix(2.75948 0 0 -2.75948 -291.015 1533.422)"/></g></svg>