<svg xmlns="http://www.w3.org/2000/svg" xml:space="preserve" width="2504.1389" height="846.99902" viewBox="0 0 2504.1389 846.99903"><path d="M711.165 410.333H873.35V349.36h-93.665v-28.29h84.235v-55.32h-84.235v-29.23h93.665v-60.976H711.165ZM888.333 293.462c0 19.487 15.715 35.202 35.205 35.202 19.486 0 35.202-15.715 35.202-35.202s-15.716-35.202-35.202-35.202c-19.49 0-35.205 15.715-35.205 35.202M980.663 410.333h68.52v-172.87h92.094v-61.92H980.663ZM1253.636 276.752h41.803l-21.058 64.12zm75.433-101.209-15.399 46.204h-77.636l-14.77-46.204h-71.037l84.551 234.79h79.519l86.122-234.79zM1624.046 175.543h-65.374l-84.552 126.038h-.312V175.543h-65.065v234.79h65.377l84.552-123.837h.313v123.837h65.061zM1724.06 237.462h11.6c35.518 0 58.464 20.116 58.464 55.321 0 35.515-22.946 55.632-58.464 55.632h-11.6zm139.21 55.321c0-70.72-49.425-117.24-126.117-117.24h-81.613v234.79h81.613c76.692 0 126.117-46.83 126.117-117.55M372.596 321.053v33.47h89.338l19.454 55.81h-168.91v-89.28h-81.773c13.546 77.607 81.41 136.788 162.836 136.788 79.726 0 149.158-58.582 162.83-136.788zm20.945 198.368c-125.099 0-226.875-101.776-226.875-226.875 0-125.098 101.776-226.874 226.875-226.874 97.858 0 184.381 62.481 215.3 155.477l1.204 3.618h-65.786l-.74-1.591c-27.065-58.273-85.935-95.925-149.978-95.925-81.426 0-149.29 59.186-162.838 136.794l81.776-.003V175.54h149.43l19.455 55.81H372.596v32.69l245.996-.01.28 2.435c1.024 8.91 1.544 17.686 1.544 26.081 0 125.099-101.775 226.875-226.875 226.875" style="fill:#d51030;fill-opacity:1;fill-rule:nonzero;stroke:none;stroke-width:.995874" transform="matrix(1.33333 0 0 -1.33333 -101.221 813.562)"/></svg>