<svg xmlns="http://www.w3.org/2000/svg" width="763.28033pt" height="150pt" viewBox="0 0 763.28034 150"><path fill="#5e2bb8" d="M38.085 149.666 2.91 132.067C1.058 131.142 0 129.29 0 127.304V3.194C0 .81 2.38-.646 4.628.281L39.671 17.88c1.853.926 3.043 2.779 3.043 4.762v124.113c0 2.382-2.514 3.97-4.629 2.91zM157.761 149.666l-35.176-17.599c-1.85-.925-2.909-2.778-2.909-4.763V3.194c0-2.383 2.512-3.839 4.629-2.912l35.174 17.598c1.719.926 2.91 2.779 2.91 4.762l.001 124.113c0 2.382-2.514 3.97-4.629 2.91z" style="stroke-width:1.76283"/><path fill="#08d1d9" d="m64.4 72.659 35.176-17.6c1.851-.925 2.909-2.778 2.909-4.761V3.193c0-2.382-2.512-3.838-4.63-2.91L62.682 17.88c-1.718.926-2.91 2.779-2.91 4.762v47.105c0 2.381 2.514 3.97 4.63 2.912zM64.4 149.666l35.177-17.599c1.85-.925 2.908-2.778 2.908-4.763V80.2c0-2.382-2.512-3.97-4.629-2.912L62.682 94.886c-1.72.928-2.91 2.78-2.91 4.764v47.105c0 2.382 2.513 3.97 4.628 2.91z" style="stroke-width:1.76283"/><path fill="#5e2bb8" d="M517.843 83.112h96.807c.793 0 1.446-.663 1.446-1.457V67.1a1.46 1.46 0 0 0-1.446-1.454h-76.712v-8.601h73.134c.793 0 1.463-.662 1.463-1.455V41.696c0-.793-.67-1.454-1.463-1.454h-73.134V31.64h75.126a1.46 1.46 0 0 0 1.445-1.456V15.763a1.46 1.46 0 0 0-1.445-1.456h-95.221a1.46 1.46 0 0 0-1.445 1.456v65.892c0 .794.652 1.457 1.445 1.457zM249.262 99.518c-9.642 0-18.508-7.278-18.508-19.451 0-10.85 8.866-19.317 18.508-19.317 9.8 0 18.65 8.468 18.65 19.317 0 12.173-8.85 19.45-18.65 19.45zm11.123-85.343c0-.794-.67-1.457-1.463-1.457h-19.179c-.793 0-1.445.663-1.445 1.457V37.86h-33.332a1.46 1.46 0 0 0-1.446 1.454V56.12a1.46 1.46 0 0 0 1.446 1.454h18.385c-7.668 4.632-13.097 12.438-13.097 24.876 0 20.378 17.327 35.594 39.008 35.594 21.822 0 39.15-15.216 39.15-35.594 0-12.438-5.43-20.244-13.097-24.876h19.848V37.86h-34.778zM682.214 86.816c-12.815 0-20.888-9.924-20.888-22.097 0-12.306 8.073-21.699 20.888-21.699 12.956 0 21.558 9.393 21.558 21.699 0 12.04-8.602 22.097-21.558 22.097zm79.603-76.08h-18.773c-.916 0-1.445.66-1.445 1.454v42.473h-17.733c-4.354-19.45-21.275-32.02-41.652-32.02-23.673 0-42.04 17.2-42.04 42.076 0 24.875 18.367 42.473 42.04 42.473 20.236 0 37.034-12.834 41.529-32.019h17.856v71.979c0 .926.917 1.72 1.851 1.323l18.773-5.425c.652-.132 1.057-.794 1.057-1.323V12.19c0-.794-.67-1.455-1.463-1.455zM630.638 91.58h-131.18a1.46 1.46 0 0 0-1.445 1.455v16.274a1.46 1.46 0 0 0 1.445 1.456h54.626v37.578c0 .926.917 1.587 1.851 1.323l19.302-5.557c.528-.265.934-.794.934-1.456v-31.887h54.467c.793 0 1.463-.662 1.463-1.457V93.035c0-.795-.67-1.456-1.463-1.456zM346.862 54.663H323.86V12.189c0-.793-.67-1.454-1.463-1.454h-19.037c-.793 0-1.463.661-1.463 1.454v136.154c0 .926.935 1.587 1.851 1.323l19.055-5.557c.529-.265 1.057-.794 1.057-1.456v-67.48h23.003c.794 0 1.446-.663 1.446-1.456V56.119c0-.793-.653-1.456-1.446-1.456zM492.848 54.663h-23.144V12.189a1.46 1.46 0 0 0-1.445-1.454h-18.773c-.793 0-1.463.661-1.463 1.454v71.452c-21.558 4.895-50.378 5.953-64.003 5.953h-.917V18.541c0-.793-.67-1.456-1.463-1.456h-19.037c-.793 0-1.463.663-1.463 1.456v90.504c0 .793.67 1.456 1.463 1.456h12.163c27.903 0 53.55-1.853 73.257-5.559v43.4c0 .927.935 1.588 1.851 1.324l18.914-5.557c.529-.265.916-.794.916-1.456v-67.48h23.144c.793 0 1.463-.663 1.463-1.456V56.119c0-.793-.67-1.456-1.463-1.456z" style="stroke-width:1.76283"/></svg>