<svg width="102" height="28" viewBox="0 0 102 28" fill="none" xmlns="http://www.w3.org/2000/svg">
<path d="M13.2664 7.7832H5.41893C2.42667 7.7832 0 10.2136 0 13.2115V22.5709C0 25.5688 2.42573 27.9992 5.41893 27.9992H13.2664C16.2587 27.9992 18.6853 25.5688 18.6853 22.5709V13.2115C18.6844 10.2136 16.2587 7.7832 13.2664 7.7832ZM14.0177 21.1859C14.0177 22.5261 12.9313 23.6125 11.5911 23.6125H7.11107C5.7708 23.6125 4.6844 22.5261 4.6844 21.1859V14.6525C4.6844 13.3123 5.7708 12.2259 7.11107 12.2259H11.5911C12.9313 12.2259 14.0177 13.3123 14.0177 14.6525V21.1859Z" fill="white"/>
<path d="M34.1776 7.84H26.3376V0H21.6709V10.2667V23.6133V25.5733C21.6709 26.9136 22.7573 28 24.0976 28H34.1776C37.167 28 39.5909 25.5761 39.5909 22.5867V13.2533C39.5909 10.2639 37.167 7.84 34.1776 7.84ZM34.9242 21.1867C34.9242 22.5269 33.8378 23.6133 32.4976 23.6133H27.5509C26.8808 23.6133 26.3376 23.0701 26.3376 22.4V13.44C26.3376 12.7699 26.8808 12.2267 27.5509 12.2267H32.4976C33.8378 12.2267 34.9242 13.3131 34.9242 14.6533V21.1867Z" fill="white"/>
<path d="M59.3781 10.2665C59.3781 8.92624 58.2917 7.83984 56.9515 7.83984H54.7115H42.5875V12.2265H53.7436L43.0112 21.2425C42.7368 21.473 42.5781 21.8128 42.5781 22.1712V25.5722C42.5781 26.9125 43.6645 27.9989 45.0048 27.9989H47.2448H59.3688V23.6122H47.4725L58.9721 13.8906C59.2475 13.6573 59.4052 13.3138 59.4024 12.9536L59.3781 10.2665Z" fill="white"/>
<path d="M66.984 22.353V21.1807C67.2286 21.2143 67.4768 21.233 67.7307 21.233H74.824C77.8135 21.233 80.2374 18.8091 80.2374 15.8196V13.2063C80.2374 10.2168 77.8135 7.79297 74.824 7.79297H67.7307C64.7412 7.79297 62.3174 10.2168 62.3174 13.2063V14.513V23.2863C62.3174 25.8632 64.4071 27.953 66.984 27.953H78.5397V23.5663H68.1974C67.5272 23.5663 66.984 23.0231 66.984 22.353ZM66.984 14.4196C66.984 13.183 67.9874 12.1796 69.224 12.1796H73.424C74.6607 12.1796 75.664 13.183 75.664 14.4196V14.6063C75.664 15.843 74.6607 16.8463 73.424 16.8463H66.984V14.4196Z" fill="white"/>
<path d="M95.824 7.79297H85.744C84.4038 7.79297 83.3174 8.87937 83.3174 10.2196V27.953H87.984V13.4863C87.984 12.8162 88.5272 12.273 89.1974 12.273H94.0507C95.391 12.273 96.4774 13.3594 96.4774 14.6996V27.953H101.237V13.2063C101.237 10.2168 98.8135 7.79297 95.824 7.79297Z" fill="white"/>
</svg>
